<?xml version="1.0" encoding="UTF-8" standalone="no"?>
<svg
   xmlns="http://www.w3.org/2000/svg"
   height="18.189676"
   width="24"
   viewBox="0 0 24 18.189676">
  <defs
     id="defs252" />
  <path
     style="stroke-width:0.188768;fill:#a4a0a9;fill-opacity:1"
     id="path246"
     d="M 20.330285,1.523357 A 19.848945,19.848945 0 0 0 15.378903,0 a 13.602615,13.602615 0 0 0 -0.63426,1.289285 18.438849,18.438849 0 0 0 -5.4950337,0 A 13.661133,13.661133 0 0 0 8.6153493,0 19.988633,19.988633 0 0 0 3.6601913,1.527133 C 0.52664427,6.163272 -0.32281073,10.684264 0.10191627,15.141074 v 0 a 19.958431,19.958431 0 0 0 6.07266403,3.048602 14.667266,14.667266 0 0 0 1.300611,-2.097212 12.9155,12.9155 0 0 1 -2.048132,-0.977818 c 0.171779,-0.124586 0.339782,-0.252949 0.502123,-0.377535 a 14.265191,14.265191 0 0 0 12.1415507,0 c 0.164228,0.134025 0.332232,0.262387 0.502123,0.377535 a 12.96458,12.96458 0 0 1 -2.051907,0.979706 14.535129,14.535129 0 0 0 1.300611,2.095324 19.867822,19.867822 0 0 0 6.076438,-3.046714 v 0 C 24.396346,9.974496 23.046655,5.495034 20.330285,1.523357 Z M 8.0131793,12.400164 c -1.183574,0 -2.161392,-1.074089 -2.161392,-2.395465 0,-1.321375 0.943839,-2.404903 2.157617,-2.404903 1.213778,0 2.1840447,1.083528 2.1632797,2.404903 -0.02076,1.321376 -0.9532777,2.395465 -2.1595047,2.395465 z m 7.9735567,0 c -1.185463,0 -2.159505,-1.074089 -2.159505,-2.395465 0,-1.321375 0.943839,-2.404903 2.159505,-2.404903 1.215665,0 2.178381,1.083528 2.157617,2.404903 -0.02076,1.321376 -0.951391,2.395465 -2.157617,2.395465 z" />
</svg>
