<?xml version="1.0" encoding="UTF-8" standalone="no"?>
<svg
   xmlns:dc="http://purl.org/dc/elements/1.1/"
   xmlns:cc="http://creativecommons.org/ns#"
   xmlns:rdf="http://www.w3.org/1999/02/22-rdf-syntax-ns#"
   xmlns:svg="http://www.w3.org/2000/svg"
   xmlns="http://www.w3.org/2000/svg"
   xmlns:sodipodi="http://sodipodi.sourceforge.net/DTD/sodipodi-0.dtd"
   xmlns:inkscape="http://www.inkscape.org/namespaces/inkscape"
   sodipodi:docname="icon-instagram.svg"
   inkscape:version="1.0 (4035a4f, 2020-05-01)"
   id="svg168"
   version="1.1"
   viewBox="0 0 6.350007 6.35005"
   height="6.35005mm"
   width="6.3500071mm">
  <defs
     id="defs162" />
  <sodipodi:namedview
     inkscape:window-maximized="0"
     inkscape:window-y="25"
     inkscape:window-x="60"
     inkscape:window-height="847"
     inkscape:window-width="1252"
     showgrid="false"
     inkscape:document-rotation="0"
     inkscape:current-layer="layer1"
     inkscape:document-units="mm"
     inkscape:cy="106.28571"
     inkscape:cx="-90.857132"
     inkscape:zoom="0.35"
     inkscape:pageshadow="2"
     inkscape:pageopacity="0.0"
     borderopacity="1.0"
     bordercolor="#666666"
     pagecolor="#ffffff"
     id="base" />
  <metadata
     id="metadata165">
    <rdf:RDF>
      <cc:Work
         rdf:about="">
        <dc:format>image/svg+xml</dc:format>
        <dc:type
           rdf:resource="http://purl.org/dc/dcmitype/StillImage" />
        <dc:title></dc:title>
      </cc:Work>
    </rdf:RDF>
  </metadata>
  <g
     transform="translate(-79.979759,-120.04524)"
     id="layer1"
     inkscape:groupmode="layer"
     inkscape:label="Layer 1">
    <path
       style="fill:#ffffff;stroke-width:0.0179785"
       class="st0"
       d="m 83.154762,120.04524 c -0.861169,0 -0.970838,0.004 -1.308833,0.0198 -0.337996,0.0162 -0.56812,0.0683 -0.769479,0.14743 -0.20855,0.0809 -0.386537,0.18877 -0.562727,0.36676 -0.176189,0.17619 -0.28406,0.35417 -0.366761,0.56272 -0.0791,0.20136 -0.13304,0.43328 -0.147423,0.76948 -0.01438,0.338 -0.01978,0.44587 -0.01978,1.30884 0,0.86117 0.0036,0.96904 0.01978,1.30883 0.01618,0.338 0.06832,0.56812 0.147423,0.76948 0.0809,0.20855 0.188774,0.38654 0.366761,0.56273 0.17619,0.17618 0.354177,0.28585 0.562727,0.36676 0.201359,0.0791 0.433281,0.13124 0.769479,0.14742 0.337995,0.0162 0.445866,0.0198 1.308833,0.0198 0.86117,0 0.969041,-0.004 1.308834,-0.0198 0.337996,-0.0162 0.56812,-0.0683 0.771277,-0.14742 0.20855,-0.0809 0.38474,-0.19058 0.560928,-0.36676 0.17619,-0.17619 0.28406,-0.35418 0.366761,-0.56273 0.07731,-0.20136 0.131243,-0.43148 0.147424,-0.76948 0.01438,-0.338 0.01978,-0.44587 0.01978,-1.30883 0,-0.86117 -0.0036,-0.96904 -0.01978,-1.30884 -0.01618,-0.33799 -0.07012,-0.56812 -0.147424,-0.76948 -0.0809,-0.20855 -0.190571,-0.38653 -0.366761,-0.56272 -0.176188,-0.17619 -0.352378,-0.28406 -0.562726,-0.36676 -0.203157,-0.0791 -0.433281,-0.13125 -0.771277,-0.14743 -0.337995,-0.0162 -0.445866,-0.0198 -1.307036,-0.0198 z m -0.28406,0.57171 c 0.0845,0 0.177987,0 0.28406,0 0.846787,0 0.947466,0.004 1.281866,0.018 0.30923,0.0144 0.47643,0.0665 0.589695,0.10967 0.147423,0.0575 0.253496,0.12585 0.364963,0.23732 0.111467,0.11146 0.179784,0.21753 0.237316,0.36496 0.04315,0.11146 0.09529,0.28046 0.109669,0.58969 0.01438,0.3344 0.01798,0.43508 0.01798,1.28187 0,0.84678 -0.0036,0.94746 -0.01798,1.28186 -0.01438,0.30923 -0.06652,0.47643 -0.109669,0.5897 -0.05753,0.14742 -0.125849,0.2535 -0.237316,0.36496 -0.111467,0.11147 -0.215742,0.17979 -0.364963,0.23732 -0.111467,0.0431 -0.280465,0.0953 -0.589695,0.10967 -0.3344,0.0144 -0.435079,0.018 -1.281866,0.018 -0.846786,0 -0.947466,-0.004 -1.281865,-0.018 -0.30923,-0.0144 -0.47643,-0.0665 -0.589695,-0.10967 -0.147423,-0.0575 -0.253496,-0.12585 -0.364963,-0.23732 -0.111466,-0.11146 -0.179785,-0.21754 -0.237316,-0.36496 -0.04315,-0.11147 -0.09529,-0.28047 -0.109668,-0.5897 -0.01438,-0.3344 -0.01798,-0.43508 -0.01798,-1.28186 0,-0.84679 0.0036,-0.94747 0.01798,-1.28187 0.01438,-0.30923 0.06652,-0.47643 0.109668,-0.58969 0.05753,-0.14743 0.12585,-0.2535 0.237316,-0.36496 0.111467,-0.11147 0.21754,-0.17979 0.364963,-0.23732 0.111467,-0.0432 0.280465,-0.0953 0.589695,-0.10967 0.293049,-0.0144 0.406313,-0.018 0.997805,-0.018 z m 1.977633,0.52677 c -0.210348,0 -0.381143,0.1708 -0.381143,0.38115 0,0.21034 0.170795,0.38114 0.381143,0.38114 0.210349,0 0.381144,-0.1708 0.381144,-0.38114 0,-0.21035 -0.170795,-0.38115 -0.381144,-0.38115 z m -1.693573,0.44587 c -0.900721,0 -1.62885,0.72992 -1.62885,1.62885 0,0.90072 0.729926,1.62885 1.62885,1.62885 0.900722,0 1.628851,-0.72993 1.628851,-1.62885 0,-0.90072 -0.728129,-1.62885 -1.628851,-1.62885 z m 0,0.57171 c 0.584301,0 1.057135,0.47284 1.057135,1.05714 0,0.5843 -0.472834,1.05713 -1.057135,1.05713 -0.5843,0 -1.057134,-0.47283 -1.057134,-1.05713 0,-0.5843 0.472834,-1.05714 1.057134,-1.05714 z"
       id="path101" />
  </g>
</svg>
