<?xml version="1.0" encoding="UTF-8" standalone="no"?>
<svg
   xmlns="http://www.w3.org/2000/svg"
   viewBox="0 0 29.663509 74.999998"
   height="75pt"
   width="29.663509pt">
  <g
     transform="matrix(6.4435317,0,0,6.4435317,0.01874919,0.01544759)"
     id="g130">
    <g
       id="g73"
       transform="translate(0,1.6371814)">
      <g
         transform="translate(-3.7,-1)"
         id="surface1">
        <path
           id="path10"
           style="fill:none;stroke:#000000;stroke-width:0.6;stroke-linecap:butt;stroke-linejoin:miter;stroke-miterlimit:10;stroke-opacity:1"
           d="M 8,5 C 8.0303059,3.9120249 7.0345709,2.9429548 5.9483383,3.0006526 4.8594315,2.9979117 3.9178131,4.019256 4.0025998,5.1029989 4.0274257,6.1920935 5.0733348,7.1058083 6.1539957,6.9941738 7.1713062,6.9361217 8.0196854,6.0181565 8,5 Z" />
        <path
           id="path12"
           style="fill:none;stroke:#000000;stroke-width:0.6;stroke-linecap:butt;stroke-linejoin:miter;stroke-miterlimit:10;stroke-opacity:1"
           d="M 4,1 C 3.9696941,2.0879751 4.9654291,3.0570452 6.0516617,2.9993474 7.1080001,2.9946838 8.0221481,2.0560223 8,1" />
        <path
           id="path14"
           style="fill:none;stroke:#000000;stroke-width:0.6;stroke-linecap:butt;stroke-linejoin:miter;stroke-miterlimit:10;stroke-opacity:1"
           d="M 6,11 C 6,9.6666667 6,8.3333333 6,7" />
        <path
           id="path16"
           style="fill:none;stroke:#000000;stroke-width:0.6;stroke-linecap:butt;stroke-linejoin:miter;stroke-miterlimit:10;stroke-opacity:1"
           d="M 4,9 C 5.3333333,9 6.6666667,9 8,9" />
      </g>
      <path
         id="path45"
         style="opacity:1;fill:#708090;stroke-width:0.735928"
         d="M 4.5877149,0.03598202 C 4.5692151,0.97575005 3.6101196,1.56441 2.7658846,1.6744292 1.7919297,1.8215586 0.60622886,1.5045442 0.13609043,0.56692273 -0.20521616,-0.11948621 0.23223782,-0.93313376 0.86713419,-1.2656038 1.9377737,-1.8766272 3.4995871,-1.7581207 4.3067151,-0.76790656 c 0.1736858,0.23008245 0.2822063,0.51375853 0.2809998,0.80388858 z" />
      <path
         id="path61"
         style="opacity:1;fill:#ffffff;stroke-width:0.0103333"
         d="M 2.1338437,1.6976225 C 1.2850078,1.6590014 0.31608431,1.2162804 0.06292884,0.34202658 -0.1290422,-0.39381595 0.43017304,-1.0989377 1.0837794,-1.3711576 2.098159,-1.8273949 3.44889,-1.7005463 4.2265049,-0.85605346 4.6993618,-0.36784135 4.6879143,0.45964402 4.2137419,0.94107144 3.6957744,1.5133583 2.8855599,1.7348608 2.1338437,1.6976225 Z" />
      <path
         id="path63"
         style="opacity:1;fill:#ffffff;stroke-width:0.0103333"
         d="M 2.0563435,1.6878812 C 1.2225958,1.6250197 0.28038494,1.1680601 0.05994032,0.29768692 -0.10974984,-0.47993002 0.5279686,-1.1716564 1.2169038,-1.4206409 2.2021886,-1.7993669 3.4626433,-1.6626227 4.2079013,-0.86561619 4.6730635,-0.39313271 4.6924944,0.41563564 4.2382342,0.90107206 3.7091841,1.5199078 2.8432164,1.7404859 2.0563435,1.6878812 Z" />
    </g>
    <path
       id="path75"
       style="opacity:1;fill:#ffffff;stroke-width:0.0103333"
       d="M 2.6015625,0.02878296 C 1.8993418,-0.02965627 1.1449983,0.11457776 0.60058595,0.58542357 0.69180547,0.71396223 0.49231509,0.60511535 0.59033185,0.67184977 0.44684502,0.62534551 0.41491727,0.8682855 0.37494727,0.93538487 0.23569532,0.89454056 0.3624695,1.2561726 0.09374885,1.4379689 -0.068526,1.8202091 0.1451083,2.3238328 0.44096716,2.6175916 1.3290939,3.4966726 2.856758,3.5548528 3.874394,2.8687628 4.4336991,2.514928 4.769219,1.7525875 4.4486385,1.1328468 4.1128464,0.44968182 3.327598,0.09500899 2.6015625,0.02878296 Z M 0.49511719,0.68210325 c 0.007757,-0.009154 -0.005735,-0.001738 0,0 z" />
  </g>
</svg>
